<svg width="47" height="28" viewBox="0 0 47 28" fill="none" xmlns="http://www.w3.org/2000/svg">
<path d="M23.4079 3.582C22.6779 1.76 20.8999 -0.217996 17.5699 0.0620041C13.3279 0.522004 12.0059 4.589 12.6469 7.014C10.9469 5.87 8.08394 5.367 5.57694 7.514C2.33894 10.76 4.07094 15.149 5.85094 16.202C3.88894 16.02 0.788943 17.346 0.102943 20.802C-0.627057 25.107 2.65494 27.617 5.85094 27.617H41.2779C44.9729 27.617 47.0239 24.42 46.7939 21.405C46.4309 17.47 42.8309 15.96 40.8669 16.285C42.5069 15.369 44.6999 11.069 41.3669 7.688C38.7219 5.172 35.3489 6.08801 34.1639 7.18501C34.8039 5.08301 33.7639 0.738002 29.4639 0.0510025C29.1804 0.0182098 28.8953 0.00118105 28.6099 0C25.3349 0 23.8619 2.395 23.4099 3.572" fill="white"/>
<path d="M6.16498 8.2001C4.29498 9.8941 3.61298 13.7301 6.98498 15.9751L20.44 25.2051L13.916 10.2591C12.549 6.7321 8.80898 5.9631 6.16398 8.1991" fill="#868686"/>
<path d="M17.7478 0.933121C15.5608 0.978121 12.2778 3.58312 13.7478 7.55912L20.4958 23.4721L22.8658 6.73412C23.4158 2.57412 20.2658 0.654122 17.7658 0.932122" fill="#868686"/>
<path d="M23.9079 6.09716H25.1839C25.1839 6.09716 25.8639 6.09716 25.9579 6.41716C25.4559 6.81716 24.0879 6.87716 24.2709 9.06916L26.4159 23.4692L33.1159 7.51416C34.4859 3.95216 31.6099 0.976163 29.0559 0.884163L28.6929 0.868164C26.3929 0.868164 23.7769 2.53316 23.9049 6.09316" fill="#868686"/>
<path d="M32.848 10.395L26.51 25.162L39.96 15.882C43.06 13.682 42.56 10.167 40.825 8.429C40.097 7.611 38.761 6.979 37.345 6.979C35.673 6.979 33.885 7.866 32.845 10.395" fill="#868686"/>
<path d="M38.455 17.9842L25.823 26.8082H41.378C44.578 26.8082 46.62 23.5082 45.708 20.5082C45.108 18.6102 43.291 17.1202 41.194 17.1082C40.311 17.1082 39.373 17.3742 38.455 17.9842Z" fill="#868686"/>
<path d="M5.80198 26.807H21.127L8.49198 17.983C5.57198 16.107 2.29198 17.205 1.10598 20.317C0.10198 23.88 2.60898 26.817 5.80298 26.817" fill="#868686"/>
</svg>
