<svg width="51" height="51" viewBox="0 0 51 51" fill="none" xmlns="http://www.w3.org/2000/svg">
<path d="M51 24.8432C51 38.5639 39.7919 49.6865 25.9635 49.6865C21.5736 49.6865 17.4494 48.5645 13.8612 46.5953L0 51L4.51917 37.6709C2.23947 33.9275 0.9265 29.5369 0.9265 24.8432C0.9265 11.1225 12.1357 0 25.9635 0C39.793 0 51 11.1225 51 24.8432ZM25.9635 3.95647C14.3559 3.95647 4.91413 13.3263 4.91413 24.8432C4.91413 29.4134 6.4039 33.6458 8.92387 37.0889L6.29397 44.846L14.3831 42.275C17.7066 44.4573 21.688 45.73 25.9641 45.73C37.57 45.73 47.0135 36.3613 47.0135 24.8444C47.0135 13.3274 37.5706 3.95647 25.9635 3.95647ZM38.6064 30.5649C38.4517 30.3116 38.0432 30.1586 37.43 29.8543C36.8158 29.55 33.7977 28.0761 33.2367 27.8738C32.674 27.6709 32.2637 27.5689 31.8552 28.1781C31.4466 28.7878 30.2702 30.1586 29.9115 30.5649C29.5534 30.9723 29.1958 31.0233 28.5815 30.7184C27.9684 30.4141 25.9913 29.7704 23.647 27.6964C21.8229 26.0825 20.591 24.0901 20.2328 23.4798C19.8753 22.8707 20.1954 22.5414 20.502 22.2383C20.7785 21.9651 21.1163 21.5271 21.4228 21.1718C21.7305 20.8159 21.8325 20.5626 22.036 20.1558C22.2417 19.7495 22.1391 19.3942 21.985 19.0887C21.832 18.7844 20.6034 15.7879 20.0923 14.5684C19.5812 13.3501 19.0706 13.553 18.7119 13.553C18.3543 13.553 17.9446 13.502 17.5355 13.502C17.1264 13.502 16.4611 13.6544 15.8984 14.2636C15.3363 14.8733 13.7513 16.3466 13.7513 19.3426C13.7513 22.3391 15.9494 25.2342 16.2571 25.64C16.5637 26.0457 20.5014 32.3946 26.7404 34.833C32.98 37.2702 32.98 36.4571 34.1054 36.3551C35.2297 36.2536 37.7355 34.8823 38.2489 33.4611C38.7589 32.0376 38.7589 30.8187 38.6064 30.5649Z" fill="#959DA5"/>
</svg>
