<svg width="33" height="32" viewBox="0 0 33 32" fill="none" xmlns="http://www.w3.org/2000/svg">
<path d="M16.0277 7.83287C15.746 7.83287 15.4674 7.84725 15.193 7.87539C14.9185 7.90353 14.6478 7.94522 14.3818 7.99996C14.1157 8.0547 13.8544 8.12249 13.5983 8.20249L12.8466 8.47876L12.131 8.82466L11.4556 9.23598L10.8246 9.70841L10.2423 10.2378L9.71287 10.8202L9.24038 11.451L8.82893 12.1264L8.48316 12.8419C8.37922 13.0867 8.28677 13.3376 8.20674 13.5937C8.12671 13.8499 8.05899 14.1113 8.0042 14.3773C7.94941 14.6433 7.90775 14.9139 7.87953 15.1885C7.85132 15.463 7.83716 15.7415 7.83716 16.0231C7.83716 16.3047 7.85152 16.5833 7.87953 16.8578C7.90739 17.1301 7.94899 17.4009 8.0042 17.669C8.05899 17.936 8.12671 18.1965 8.20674 18.4526C8.28677 18.7088 8.37912 18.9596 8.48316 19.2044L8.82893 19.9199L9.24038 20.5952L9.71287 21.2262L10.2423 21.8085L10.8246 22.3379L11.4556 22.8104L12.131 23.2217L12.8466 23.5676L13.5983 23.8439L14.3818 24.0464C14.6499 24.1016 14.9207 24.1432 15.193 24.1711C15.4703 24.1994 15.7489 24.2135 16.0277 24.2135C16.3093 24.2135 16.5879 24.1991 16.8623 24.1711C17.1346 24.1432 17.4053 24.1016 17.6734 24.0464L18.457 23.8439L19.2087 23.5676L19.9243 23.2217L20.5997 22.8104L21.2307 22.3379L21.8131 21.8085L22.3426 21.2262L22.8151 20.5952L23.2265 19.9199L23.5723 19.2044L23.8487 18.4526C23.9287 18.1965 23.9964 17.935 24.0512 17.669L24.1759 16.8577C24.204 16.5832 24.2184 16.3046 24.2184 16.023C24.2184 15.7414 24.204 15.4629 24.1759 15.1884C24.1481 14.9161 24.1064 14.6453 24.0512 14.3772C23.9964 14.1102 23.9287 13.8499 23.8487 13.5936L23.5723 12.8418L23.2265 12.1263L22.8151 11.4509L22.3426 10.82L21.8131 10.2377L21.2307 9.7083L20.5997 9.23587L19.9243 8.82455L19.2087 8.47865L18.457 8.20239L17.6734 7.99986L16.8623 7.87528C16.585 7.84694 16.3064 7.83274 16.0277 7.83276V7.83287ZM16.0277 10.6598C16.2139 10.6598 16.3977 10.6691 16.5787 10.6874L17.1122 10.7682L17.6276 10.8996L18.1211 11.0791L18.5903 11.304L19.0315 11.5715L19.444 11.8793L19.8242 12.2246L20.1695 12.6048L20.4773 13.0172L20.7449 13.4595L20.9696 13.9288C21.0371 14.0895 21.0971 14.2541 21.1492 14.4224C21.2013 14.5907 21.2451 14.7628 21.2805 14.938C21.3159 15.1132 21.3421 15.2915 21.3613 15.4725L21.3888 16.0236C21.3888 16.2098 21.3795 16.3937 21.3613 16.5748C21.343 16.756 21.3161 16.9343 21.2805 17.1094C21.2449 17.2845 21.201 17.4565 21.1492 17.625L20.9696 18.1185L20.7449 18.5879L20.4773 19.03L20.1695 19.4426L19.8242 19.8228L19.444 20.1681L19.0315 20.4759L18.5903 20.7434L18.1211 20.9683L17.6276 21.1477L17.1122 21.2792L16.5787 21.3599C16.3955 21.3783 16.2116 21.3875 16.0276 21.3874C15.8435 21.3875 15.6595 21.3783 15.4764 21.3599L14.9428 21.2792C14.7677 21.2437 14.5957 21.1997 14.4273 21.1477L13.9338 20.9683L13.4646 20.7434L13.0234 20.4759L12.6109 20.1681L12.2307 19.8228L11.8854 19.4426L11.5776 19.03L11.31 18.5879L11.0853 18.1185L10.9058 17.625L10.7744 17.1094L10.6937 16.5748C10.6753 16.3917 10.6661 16.2077 10.6662 16.0236C10.6661 15.8396 10.6753 15.6557 10.6937 15.4725C10.7118 15.2915 10.7388 15.1131 10.7744 14.938C10.8097 14.7641 10.8535 14.5921 10.9059 14.4225L11.0854 13.9289L11.3101 13.4596L11.5777 13.0174L11.8855 12.6049L12.2308 12.2247L12.611 11.8794L13.0235 11.5716L13.4647 11.3041L13.9339 11.0792C14.0954 11.0113 14.2602 10.9514 14.4276 10.8997L14.943 10.7683C15.1182 10.7328 15.2965 10.7056 15.4766 10.6875C15.6597 10.6691 15.8437 10.6599 16.0278 10.6599L16.0277 10.6598Z" fill="url(#paint0_radial_36_8)"/>
<path d="M24.5506 5.50317C24.4856 5.50319 24.4206 5.50648 24.3559 5.51303C24.2912 5.51958 24.2268 5.52938 24.1631 5.54241C24.0993 5.55542 24.0363 5.57163 23.9742 5.59098C23.9121 5.61035 23.8509 5.63284 23.791 5.65836C23.7311 5.68391 23.6725 5.71246 23.6155 5.74391C23.5584 5.77529 23.5029 5.80954 23.4493 5.84651C23.3956 5.88352 23.3438 5.92321 23.294 5.96544C23.2443 6.00762 23.1967 6.05228 23.1514 6.09925C23.1061 6.14626 23.0631 6.19551 23.0227 6.24684C22.9823 6.29817 22.9445 6.3515 22.9093 6.40664C22.8742 6.46174 22.8419 6.51857 22.8124 6.57692C22.7829 6.63532 22.7563 6.69516 22.7327 6.75624C22.7091 6.8173 22.6886 6.87951 22.6712 6.94264C22.6538 7.00577 22.6396 7.06973 22.6285 7.13428C22.6175 7.19882 22.6096 7.26388 22.605 7.32921C22.6018 7.37549 22.6001 7.42187 22.6001 7.46827C22.6001 7.53381 22.6033 7.59932 22.6098 7.66453C22.6163 7.72972 22.6261 7.79453 22.639 7.85874C22.6519 7.92295 22.668 7.98646 22.6872 8.04905C22.7064 8.11165 22.7288 8.17325 22.7541 8.2336C22.7794 8.29398 22.8078 8.35304 22.839 8.41056C22.8701 8.46807 22.9041 8.52397 22.9408 8.57806C22.9776 8.63212 23.017 8.68429 23.0588 8.73438C23.1007 8.78451 23.1451 8.83249 23.1917 8.87816C23.2384 8.9238 23.2873 8.96705 23.3382 9.00777C23.3892 9.04851 23.4421 9.08666 23.4969 9.12207C23.5516 9.15749 23.6081 9.19012 23.6661 9.21985C23.724 9.24959 23.7834 9.27639 23.844 9.30016C23.9046 9.3239 23.9663 9.34457 24.029 9.36209C24.0916 9.37958 24.1551 9.39391 24.2192 9.40502C24.2833 9.41617 24.3479 9.42409 24.4127 9.42874C24.4586 9.43203 24.5047 9.43367 24.5507 9.43367C24.6157 9.43369 24.6807 9.43044 24.7455 9.42391C24.8102 9.41737 24.8745 9.40757 24.9382 9.39454C25.002 9.38153 25.065 9.36532 25.1271 9.34597C25.1893 9.3266 25.2504 9.30411 25.3103 9.27859C25.3702 9.25308 25.4288 9.22456 25.4859 9.19314C25.5429 9.16172 25.5984 9.12745 25.6521 9.09044C25.7057 9.05347 25.7576 9.01381 25.8073 8.97162C25.857 8.9294 25.9046 8.8847 25.9499 8.83769C25.9952 8.79069 26.0382 8.74144 26.0786 8.69011C26.119 8.63878 26.1568 8.58545 26.192 8.53031C26.2271 8.47518 26.2595 8.41831 26.2889 8.35992C26.3185 8.30153 26.3451 8.24168 26.3687 8.18061C26.3922 8.11955 26.4127 8.05733 26.4301 7.9942C26.4475 7.93108 26.4618 7.86712 26.4728 7.80256C26.4839 7.73802 26.4917 7.67296 26.4963 7.60763C26.4996 7.56136 26.5012 7.51497 26.5012 7.46858C26.5012 7.40307 26.498 7.3376 26.4915 7.27242C26.485 7.20723 26.4753 7.14241 26.4623 7.07821C26.4494 7.014 26.4333 6.95049 26.4141 6.8879C26.3949 6.8253 26.3726 6.7637 26.3472 6.70335C26.3219 6.64297 26.2936 6.58391 26.2624 6.52639C26.2312 6.46888 26.1972 6.41297 26.1605 6.35888C26.1237 6.30479 26.0843 6.25259 26.0424 6.20247C26.0005 6.15234 25.9562 6.10436 25.9096 6.05869C25.8629 6.01305 25.814 5.96979 25.7631 5.92908C25.7121 5.88837 25.6592 5.85025 25.6045 5.81487C25.5497 5.77946 25.4932 5.74683 25.4353 5.7171C25.3773 5.68736 25.3179 5.66055 25.2573 5.63679C25.1967 5.61305 25.135 5.59238 25.0724 5.57486C25.0097 5.55733 24.9462 5.54297 24.8821 5.53183C24.8181 5.52071 24.7535 5.51283 24.6886 5.50821C24.6427 5.50492 24.5967 5.50328 24.5506 5.50328V5.50317Z" fill="url(#paint1_radial_36_8)"/>
<path d="M14.4745 0.00029867C13.5837 -0.00113915 12.7887 0.00255761 12.0746 0.0126224L10.16 0.0639732C9.59281 0.0886216 9.09169 0.120765 8.64187 0.162359C8.41696 0.183105 8.20477 0.206316 8.00367 0.231888C7.8123 0.256031 7.62144 0.284145 7.43124 0.316208C7.25014 0.347019 7.07828 0.380292 6.91349 0.416443C6.74871 0.452594 6.59132 0.491622 6.43946 0.533525C6.29101 0.574499 6.14372 0.619569 5.99775 0.668681C5.85472 0.716951 5.71518 0.768096 5.57738 0.822734C5.30178 0.932008 5.03296 1.05463 4.75613 1.19205C4.54312 1.29783 4.34633 1.40495 4.15938 1.51833C3.97244 1.63171 3.79534 1.75146 3.62194 1.8819C3.44336 2.01687 3.27124 2.1602 3.10615 2.31139C2.93357 2.46873 2.75729 2.64179 2.57414 2.83517C2.344 3.07683 2.14402 3.30216 1.96652 3.52328C1.87777 3.63378 1.79466 3.74306 1.71637 3.85295C1.63895 3.96124 1.56493 4.07194 1.49444 4.18488C1.42466 4.29682 1.35859 4.41082 1.29538 4.52811C1.23119 4.64741 1.17053 4.76859 1.11346 4.89147C0.9967 5.14247 0.887735 5.41278 0.778974 5.71452C0.698287 5.93759 0.626036 6.16362 0.562376 6.39214C0.497427 6.62569 0.43966 6.87002 0.388153 7.13427C0.336645 7.39852 0.291705 7.68269 0.252202 7.99696C0.209633 8.34145 0.175627 8.68694 0.150213 9.03312C0.121484 9.41373 0.0976794 9.83255 0.0781846 10.2987L0.0320126 11.8487L0.00718229 13.7381L0 16.0219L0.0210339 19.3429L0.0867008 21.8591L0.137285 22.842L0.200489 23.6564C0.22075 23.8759 0.246101 24.0949 0.276519 24.3133C0.304223 24.5072 0.333978 24.6769 0.36599 24.8237C0.430946 25.1223 0.507755 25.4182 0.596235 25.7106C0.680953 25.9907 0.777835 26.2669 0.886606 26.5384C0.99352 26.8044 1.11049 27.061 1.23772 27.3079C1.36495 27.5548 1.50244 27.792 1.65019 28.0199C1.79794 28.2478 1.95595 28.4663 2.12463 28.6755C2.29312 28.8848 2.47234 29.0851 2.66156 29.2757C2.85107 29.4668 3.05095 29.6485 3.26159 29.8213C3.47473 29.996 3.69628 30.1602 3.92544 30.3132C4.13814 30.4556 4.34859 30.5859 4.56057 30.7055C4.77255 30.8252 4.98638 30.9337 5.20615 31.0324C5.42593 31.1311 5.65125 31.22 5.88663 31.2999C6.122 31.3798 6.36723 31.4509 6.62641 31.5139C6.88559 31.577 7.15995 31.6323 7.45032 31.6806C7.74069 31.7289 8.05107 31.7703 8.38269 31.8059C8.71431 31.8415 9.06809 31.871 9.44824 31.8957C9.82839 31.9203 10.2347 31.94 10.6713 31.9558C11.3457 31.9803 12.3666 31.9946 13.5439 32L17.3551 31.9923L20.9642 31.9417L22.3364 31.903L23.2304 31.857C23.4223 31.8414 23.61 31.8229 23.7912 31.8013C23.9724 31.7796 24.1512 31.7548 24.3252 31.7267C24.4992 31.6986 24.6693 31.6671 24.8365 31.6322C25.0017 31.5978 25.166 31.5593 25.3294 31.5169C25.4911 31.4758 25.6505 31.4291 25.8083 31.3795C25.9661 31.3299 26.1223 31.2763 26.2775 31.2187C26.4337 31.1609 26.5884 31.0992 26.7415 31.0338C26.8957 30.9681 27.0497 30.8978 27.2043 30.8232C27.4416 30.7088 27.6326 30.6134 27.8004 30.5203C27.9582 30.4336 28.1102 30.3367 28.2553 30.2302C28.3986 30.1247 28.541 30.0045 28.7052 29.8531C28.8693 29.7017 29.0553 29.5193 29.2857 29.2887C29.4881 29.0861 29.6589 28.9101 29.8061 28.75C29.9533 28.5899 30.0774 28.4458 30.1862 28.3069C30.2898 28.1752 30.3864 28.038 30.4755 27.8959C30.5624 27.7573 30.6424 27.6133 30.724 27.4536C30.8467 27.2133 30.9559 26.9907 31.0537 26.776C31.1486 26.569 31.2354 26.3584 31.3137 26.1446C31.3908 25.9324 31.4576 25.7167 31.5139 25.4981C31.5717 25.2731 31.6216 25.0357 31.6647 24.7752C31.7078 24.5148 31.7442 24.2313 31.7758 23.9148C31.8074 23.5983 31.8343 23.2485 31.8579 22.8554L31.9205 21.536L31.9742 19.8952L32.0126 18.0671L32.0274 16.1556L31.9931 12.4013L31.9473 10.7198L31.8847 9.27601L31.8067 8.1504C31.7784 7.83716 31.7478 7.59047 31.7154 7.42368C31.6795 7.23939 31.6394 7.05595 31.5951 6.87351C31.552 6.69598 31.5046 6.51952 31.453 6.34428C31.4027 6.17356 31.348 6.00415 31.289 5.83622C31.2308 5.67036 31.169 5.50799 31.1044 5.34911C31.0397 5.19023 30.9697 5.03504 30.8969 4.88315C30.824 4.73125 30.7477 4.58305 30.6676 4.43824C30.5874 4.29344 30.5039 4.15222 30.4166 4.0145C30.3293 3.87677 30.2384 3.74254 30.1437 3.61191C30.0495 3.48169 29.9513 3.35445 29.8492 3.23037C29.7476 3.10697 29.6421 2.98682 29.533 2.87009C29.424 2.75351 29.3113 2.64041 29.1951 2.53097C29.0788 2.42149 28.9591 2.3155 28.8356 2.21301C28.7116 2.11017 28.5844 2.01122 28.4543 1.9163C28.3228 1.82041 28.1884 1.72855 28.0513 1.64086C27.9123 1.55191 27.7707 1.46711 27.6267 1.38657C27.4802 1.30467 27.3313 1.227 27.1804 1.15364C26.9298 1.03173 26.6981 0.923587 26.4706 0.827664C26.247 0.732465 26.0191 0.647914 25.7875 0.574297C25.5546 0.500866 25.3121 0.43791 25.0454 0.383581C24.7786 0.329252 24.4877 0.28396 24.1584 0.245447C23.8292 0.206934 23.4616 0.175816 23.0411 0.149935C22.6206 0.124054 22.1477 0.103718 21.6077 0.0872855L19.7725 0.0462054L17.4499 0.0187842L14.4756 0.000502393L14.4745 0.00029867ZM16.0192 2.8248L20.3084 2.84924L21.9265 2.88047C22.3721 2.89299 22.7121 2.90768 22.9115 2.92463C23.1711 2.9465 23.4184 2.97392 23.6549 3.00679C23.8818 3.03816 24.1077 3.07717 24.332 3.12376C24.5475 3.16895 24.753 3.2203 24.9497 3.27823C25.1464 3.33615 25.3343 3.40106 25.5146 3.47285C25.6948 3.54464 25.8672 3.62361 26.0331 3.71009C26.1977 3.79591 26.3577 3.89036 26.5123 3.99303C26.6662 4.09522 26.8146 4.20532 26.9586 4.32394C27.1027 4.44256 27.2423 4.5697 27.3787 4.70568C27.5226 4.84915 27.6554 4.9953 27.7778 5.14606C27.8998 5.2959 28.0126 5.45294 28.1157 5.61634C28.22 5.78206 28.3139 5.95407 28.397 6.13138C28.482 6.31214 28.5583 6.50316 28.6269 6.70621C28.6954 6.90925 28.7565 7.12502 28.8105 7.35559C28.8672 7.60003 28.9146 7.84652 28.9527 8.09453C28.9938 8.35744 29.0289 8.63782 29.0586 8.93802C29.0884 9.23821 29.113 9.55834 29.1333 9.90085C29.1495 10.1756 29.1637 10.5381 29.1757 10.9663L29.2058 12.4262L29.2287 16.0023L29.2026 19.5749L29.1712 21.0306L29.128 22.0894C29.098 22.5851 29.0664 23.0019 29.0287 23.3646C29.0097 23.546 28.9892 23.7138 28.9664 23.8713C28.9451 24.02 28.9198 24.1682 28.8906 24.3155C28.8639 24.45 28.8329 24.5836 28.7977 24.7161C28.764 24.8425 28.726 24.9678 28.6839 25.0917C28.6415 25.2161 28.5953 25.3393 28.5455 25.461C28.4928 25.5895 28.4372 25.7168 28.3788 25.8427C28.3268 25.9552 28.2721 26.0646 28.2142 26.1711C28.157 26.2765 28.0962 26.3799 28.032 26.4812C27.9684 26.5816 27.9017 26.679 27.8319 26.7734C27.7625 26.8675 27.6897 26.959 27.6138 27.0478C27.538 27.1363 27.459 27.2219 27.377 27.3046C27.295 27.3873 27.2098 27.4671 27.1216 27.5441C27.0333 27.6211 26.9418 27.695 26.8471 27.7663C26.7524 27.8376 26.6544 27.906 26.5531 27.9715C26.4519 28.037 26.3474 28.0999 26.2396 28.1599C26.1317 28.2199 26.0205 28.2772 25.9061 28.3317C25.7897 28.387 25.6717 28.4389 25.5522 28.4872C25.4287 28.5371 25.3038 28.5835 25.1777 28.6263C24.9212 28.7138 24.6506 28.7907 24.3658 28.8569C24.069 28.9255 23.7694 28.9817 23.4678 29.0251C23.3519 29.0421 23.0854 29.058 22.7037 29.0728L21.2492 29.1133L17.1255 29.1669L12.8094 29.1736L11.1143 29.1556L10.0137 29.1213L9.20209 29.0642C8.95009 29.0429 8.71574 29.0193 8.49617 28.9925C8.2766 28.9657 8.0721 28.9358 7.87972 28.9021C7.69741 28.8705 7.51621 28.8329 7.33643 28.7891C7.1725 28.7492 7.01026 28.7027 6.85008 28.6497C6.69566 28.5983 6.54802 28.5418 6.40437 28.4797C6.26072 28.4176 6.12118 28.3495 5.98297 28.2751C5.84477 28.2008 5.70799 28.12 5.56968 28.032C5.46533 27.9657 5.36447 27.8985 5.26741 27.8273C5.17035 27.7562 5.07656 27.6852 4.98627 27.6108C4.89598 27.5365 4.80928 27.4599 4.72566 27.381C4.64259 27.3025 4.56237 27.221 4.48515 27.1368C4.4082 27.0528 4.33463 26.9663 4.26404 26.8767C4.19317 26.7868 4.12565 26.6943 4.0616 26.5994C3.9966 26.5031 3.9351 26.4044 3.87722 26.3036C3.81874 26.202 3.76312 26.0968 3.71028 25.9884C3.65656 25.8778 3.60642 25.7656 3.55997 25.6518C3.51277 25.536 3.46803 25.4164 3.42597 25.293C3.34183 25.046 3.26795 24.783 3.20372 24.5027C3.13949 24.2223 3.0847 23.9245 3.03833 23.6071C2.99195 23.2898 2.9546 22.9533 2.92484 22.5957C2.90289 22.3323 2.88544 21.922 2.87211 21.4044L2.8442 19.5634L2.85446 14.8705L2.93521 10.3861L2.99677 8.80615L3.03166 8.28391C3.04376 8.14444 3.05628 8.04112 3.06911 7.97909C3.11138 7.77502 3.15396 7.58513 3.19798 7.40735C3.2391 7.23964 3.28484 7.07309 3.33516 6.90791C3.38297 6.75201 3.43335 6.60597 3.48722 6.46763C3.53916 6.33362 3.59706 6.202 3.66072 6.07315C3.7229 5.94786 3.7897 5.8279 3.86224 5.71113C3.93478 5.59436 4.01307 5.48108 4.09844 5.36841C4.1838 5.25575 4.27574 5.14452 4.37578 5.03176C4.47582 4.91899 4.58386 4.8051 4.70103 4.68771C4.83759 4.55024 4.97979 4.4185 5.12725 4.29282C5.26649 4.17425 5.4117 4.06287 5.56229 3.95914C5.71035 3.85644 5.86221 3.76503 6.02032 3.68102C6.17844 3.59701 6.34281 3.52112 6.5157 3.45282C6.68858 3.38452 6.87019 3.32342 7.06258 3.26796C7.26469 3.21121 7.46905 3.1628 7.67513 3.12284C7.89183 3.08032 8.12197 3.04325 8.36771 3.0109C8.61345 2.97854 8.87488 2.95061 9.15438 2.92637C9.34933 2.90953 9.68525 2.89453 10.1276 2.8819L11.7374 2.85006L16.02 2.82388L16.0192 2.8248Z" fill="url(#paint2_radial_36_8)"/>
<defs>
<radialGradient id="paint0_radial_36_8" cx="0" cy="0" r="1" gradientUnits="userSpaceOnUse" gradientTransform="translate(5.10243 34.3326) rotate(-9.53987) scale(67.6911 41.1249)">
<stop stop-color="#868686"/>
</radialGradient>
<radialGradient id="paint1_radial_36_8" cx="0" cy="0" r="1" gradientUnits="userSpaceOnUse" gradientTransform="translate(5.10264 34.3328) rotate(-9.53987) scale(67.6911 41.1249)">
<stop stop-color="#868686"/>
</radialGradient>
<radialGradient id="paint2_radial_36_8" cx="0" cy="0" r="1" gradientUnits="userSpaceOnUse" gradientTransform="translate(5.10252 34.3327) rotate(-9.53987) scale(67.6911 41.1249)">
<stop stop-color="#868686"/>
</radialGradient>
</defs>
</svg>
