<svg width="92" height="32" viewBox="0 0 92 32" fill="none" xmlns="http://www.w3.org/2000/svg">
<path d="M16 32C24.8366 32 32 24.8366 32 16C32 7.16344 24.8366 0 16 0C7.16344 0 0 7.16344 0 16C0 24.8366 7.16344 32 16 32Z" fill="white"/>
<path d="M13.835 6.75C14.7972 5.08335 17.2028 5.08335 18.165 6.75L25.0938 18.75C26.0558 20.4166 24.8522 22.5 22.9277 22.5H9.07227C7.14785 22.5 5.94422 20.4166 6.90625 18.75L13.835 6.75Z" fill="white" stroke="black"/>
<path d="M10 13.5C23.2801 6.97965 22.9993 10.2742 15.6605 22.4998" stroke="black"/>
<path d="M22.5 22.4946C16 22.4999 17 7.99468 13 8.49456" stroke="black"/>
<path d="M15.9998 22.5007C6.99995 21.5 16.5 15.5 9.99976 13.5007" stroke="black"/>
<path d="M42.5996 20H41.2695L37.25 13.7012V20H35.9199V11.4688H37.25L41.2812 17.7793V11.4688H42.5996V20ZM44.0352 16.7656C44.0352 16.1523 44.1523 15.6035 44.3867 15.1191C44.6211 14.6348 44.9551 14.252 45.3887 13.9707C45.8262 13.6855 46.3457 13.543 46.9473 13.543C47.5605 13.543 48.0859 13.6855 48.5234 13.9707C48.9609 14.252 49.2949 14.6348 49.5254 15.1191C49.7598 15.6035 49.877 16.1523 49.877 16.7656V16.9004C49.877 17.5098 49.7598 18.0586 49.5254 18.5469C49.2949 19.0312 48.9609 19.4141 48.5234 19.6953C48.0898 19.9766 47.5684 20.1172 46.959 20.1172C46.3535 20.1172 45.832 19.9766 45.3945 19.6953C44.957 19.4141 44.6211 19.0312 44.3867 18.5469C44.1523 18.0586 44.0352 17.5098 44.0352 16.9004V16.7656ZM45.3184 16.9004C45.3184 17.2949 45.377 17.6582 45.4941 17.9902C45.6113 18.3223 45.791 18.5898 46.0332 18.793C46.2754 18.9922 46.584 19.0918 46.959 19.0918C47.334 19.0918 47.6426 18.9922 47.8848 18.793C48.127 18.5898 48.3066 18.3223 48.4238 17.9902C48.541 17.6582 48.5996 17.2949 48.5996 16.9004V16.7656C48.5996 16.375 48.541 16.0137 48.4238 15.6816C48.3066 15.3457 48.125 15.0762 47.8789 14.873C47.6367 14.6699 47.3262 14.5684 46.9473 14.5684C46.5801 14.5684 46.2734 14.6699 46.0273 14.873C45.7852 15.0762 45.6055 15.3457 45.4883 15.6816C45.375 16.0137 45.3184 16.375 45.3184 16.7656V16.9004ZM51.8984 11.293C52.1367 11.293 52.3203 11.3613 52.4492 11.498C52.5781 11.6309 52.6426 11.7949 52.6426 11.9902C52.6426 12.1855 52.5781 12.3496 52.4492 12.4824C52.3203 12.6152 52.1367 12.6816 51.8984 12.6816C51.6641 12.6816 51.4824 12.6152 51.3535 12.4824C51.2285 12.3496 51.166 12.1855 51.166 11.9902C51.166 11.7949 51.2285 11.6309 51.3535 11.498C51.4824 11.3613 51.6641 11.293 51.8984 11.293ZM52.543 20H51.2656V13.6602H52.543V20ZM55.4785 20H54.2012V13.6602H55.4316L55.4785 14.7793V20ZM57.4238 14.8145C57.3301 14.7988 57.2383 14.7871 57.1484 14.7793C57.0586 14.7715 56.9648 14.7676 56.8672 14.7676C56.5391 14.7676 56.2637 14.832 56.041 14.9609C55.8223 15.0859 55.6543 15.2617 55.5371 15.4883C55.4199 15.7109 55.3496 15.9727 55.3262 16.2734L55.0039 16.3613C55.0039 15.8379 55.0723 15.3633 55.209 14.9375C55.3496 14.5117 55.5625 14.1738 55.8477 13.9238C56.1328 13.6699 56.4961 13.543 56.9375 13.543C57.0156 13.543 57.1055 13.5508 57.207 13.5664C57.3086 13.582 57.3828 13.6016 57.4297 13.625L57.4238 14.8145ZM61.3379 20.1172C60.9355 20.1172 60.5391 20.0625 60.1484 19.9531C59.7617 19.8438 59.4082 19.6777 59.0879 19.4551C58.7715 19.2324 58.5195 18.9551 58.332 18.623C58.1445 18.291 58.0508 17.9043 58.0508 17.4629H59.375C59.375 17.7441 59.4258 17.9863 59.5273 18.1895C59.6328 18.3887 59.7754 18.5527 59.9551 18.6816C60.1387 18.8105 60.3477 18.9062 60.582 18.9688C60.8203 19.0273 61.0723 19.0566 61.3379 19.0566C61.7051 19.0566 62.0117 19.0059 62.2578 18.9043C62.5078 18.7988 62.6973 18.6543 62.8262 18.4707C62.9551 18.2832 63.0195 18.0664 63.0195 17.8203C63.0195 17.5703 62.9668 17.3594 62.8613 17.1875C62.7598 17.0117 62.5703 16.8516 62.293 16.707C62.0156 16.5586 61.6191 16.4082 61.1035 16.2559C60.6895 16.1348 60.3125 15.9961 59.9727 15.8398C59.6367 15.6836 59.3438 15.5059 59.0938 15.3066C58.8438 15.1035 58.6504 14.8691 58.5137 14.6035C58.3809 14.3379 58.3145 14.0332 58.3145 13.6895C58.3145 13.2363 58.4395 12.834 58.6895 12.4824C58.9395 12.1309 59.2871 11.8555 59.7324 11.6562C60.1777 11.4531 60.6953 11.3516 61.2852 11.3516C61.9258 11.3516 62.4746 11.4707 62.9316 11.709C63.3887 11.9473 63.7363 12.2637 63.9746 12.6582C64.2168 13.0527 64.3379 13.4824 64.3379 13.9473H63.0078C63.0078 13.6504 62.9453 13.3867 62.8203 13.1562C62.6953 12.9258 62.5039 12.7461 62.2461 12.6172C61.9922 12.4844 61.6699 12.418 61.2793 12.418C60.9082 12.418 60.6016 12.4746 60.3594 12.5879C60.1172 12.6973 59.9375 12.8477 59.8203 13.0391C59.7031 13.2266 59.6445 13.4414 59.6445 13.6836C59.6445 13.9062 59.7109 14.1035 59.8438 14.2754C59.9805 14.4473 60.1895 14.6035 60.4707 14.7441C60.752 14.8809 61.1094 15.0137 61.543 15.1426C62.1797 15.3223 62.7051 15.5332 63.1191 15.7754C63.5371 16.0176 63.8457 16.3047 64.0449 16.6367C64.248 16.9688 64.3496 17.3594 64.3496 17.8086C64.3496 18.2773 64.2246 18.6855 63.9746 19.0332C63.7285 19.3809 63.3789 19.6484 62.9258 19.8359C62.4766 20.0234 61.9473 20.1172 61.3379 20.1172ZM65.293 16.7656C65.293 16.1523 65.4102 15.6035 65.6445 15.1191C65.8789 14.6348 66.2129 14.252 66.6465 13.9707C67.084 13.6855 67.6035 13.543 68.2051 13.543C68.8184 13.543 69.3438 13.6855 69.7812 13.9707C70.2188 14.252 70.5527 14.6348 70.7832 15.1191C71.0176 15.6035 71.1348 16.1523 71.1348 16.7656V16.9004C71.1348 17.5098 71.0176 18.0586 70.7832 18.5469C70.5527 19.0312 70.2188 19.4141 69.7812 19.6953C69.3477 19.9766 68.8262 20.1172 68.2168 20.1172C67.6113 20.1172 67.0898 19.9766 66.6523 19.6953C66.2148 19.4141 65.8789 19.0312 65.6445 18.5469C65.4102 18.0586 65.293 17.5098 65.293 16.9004V16.7656ZM66.5762 16.9004C66.5762 17.2949 66.6348 17.6582 66.752 17.9902C66.8691 18.3223 67.0488 18.5898 67.291 18.793C67.5332 18.9922 67.8418 19.0918 68.2168 19.0918C68.5918 19.0918 68.9004 18.9922 69.1426 18.793C69.3848 18.5898 69.5645 18.3223 69.6816 17.9902C69.7988 17.6582 69.8574 17.2949 69.8574 16.9004V16.7656C69.8574 16.375 69.7988 16.0137 69.6816 15.6816C69.5645 15.3457 69.3828 15.0762 69.1367 14.873C68.8945 14.6699 68.584 14.5684 68.2051 14.5684C67.8379 14.5684 67.5312 14.6699 67.2852 14.873C67.043 15.0762 66.8633 15.3457 66.7461 15.6816C66.6328 16.0137 66.5762 16.375 66.5762 16.7656V16.9004ZM76.2383 13.6602H77.5156V20H76.3086L76.2383 18.5176V13.6602ZM76.9121 17.1758C76.9121 17.7422 76.8301 18.2461 76.666 18.6875C76.502 19.1289 76.2402 19.4785 75.8809 19.7363C75.5215 19.9902 75.0488 20.1172 74.4629 20.1172C73.8379 20.1172 73.332 19.9336 72.9453 19.5664C72.5625 19.1992 72.3711 18.5957 72.3711 17.7559V13.6602H73.6543V17.7676C73.6543 18.1035 73.7031 18.3672 73.8008 18.5586C73.9023 18.7461 74.0352 18.877 74.1992 18.9512C74.3672 19.0254 74.5449 19.0625 74.7324 19.0625C75.1582 19.0625 75.4961 18.9805 75.7461 18.8164C75.9961 18.6484 76.1738 18.4219 76.2793 18.1367C76.3887 17.8516 76.4434 17.5352 76.4434 17.1875L76.9121 17.1758ZM80.3164 20H79.0391V13.6602H80.2402L80.3164 15.0137V20ZM79.5957 16.584C79.6035 15.9902 79.7129 15.4648 79.9238 15.0078C80.1387 14.5508 80.4355 14.1934 80.8145 13.9355C81.1973 13.6738 81.6426 13.543 82.1504 13.543C82.5645 13.543 82.9219 13.6211 83.2227 13.7773C83.5234 13.9297 83.7578 14.1777 83.9258 14.5215C84.0938 14.8613 84.1777 15.3145 84.1777 15.8809V20H82.8945V15.8691C82.8945 15.5566 82.8496 15.3066 82.7598 15.1191C82.6699 14.9316 82.5371 14.7969 82.3613 14.7148C82.1855 14.6328 81.9688 14.5918 81.7109 14.5918C81.457 14.5918 81.2285 14.6445 81.0254 14.75C80.8223 14.8555 80.6484 15.002 80.5039 15.1895C80.3594 15.373 80.248 15.5859 80.1699 15.8281C80.0957 16.0664 80.0586 16.3223 80.0586 16.5957L79.5957 16.584ZM87.9277 20.1172C87.4238 20.1172 86.9844 19.9785 86.6094 19.7012C86.2383 19.4199 85.9492 19.0371 85.7422 18.5527C85.5391 18.0684 85.4375 17.5176 85.4375 16.9004V16.7773C85.4375 16.1328 85.5391 15.5684 85.7422 15.084C85.9492 14.5957 86.2383 14.2168 86.6094 13.9473C86.9844 13.6777 87.4277 13.543 87.9395 13.543C88.4629 13.543 88.8984 13.6699 89.2461 13.9238C89.5977 14.1777 89.873 14.5352 90.0723 14.9961C90.2715 15.4531 90.4023 15.9922 90.4648 16.6133V17.082C90.4023 17.6875 90.2715 18.2188 90.0723 18.6758C89.877 19.1289 89.6035 19.4824 89.252 19.7363C88.9004 19.9902 88.459 20.1172 87.9277 20.1172ZM88.25 19.0625C88.5859 19.0625 88.8633 18.9902 89.082 18.8457C89.3008 18.6973 89.4727 18.502 89.5977 18.2598C89.7266 18.0176 89.8223 17.748 89.8848 17.4512V16.25C89.8496 16.0234 89.791 15.8105 89.709 15.6113C89.6309 15.4121 89.5273 15.2363 89.3984 15.084C89.2695 14.9316 89.1113 14.8125 88.9238 14.7266C88.7363 14.6367 88.5156 14.5918 88.2617 14.5918C87.8945 14.5918 87.5977 14.6914 87.3711 14.8906C87.1445 15.0859 86.9785 15.3496 86.873 15.6816C86.7676 16.0137 86.7148 16.3789 86.7148 16.7773V16.9004C86.7148 17.2988 86.7676 17.6621 86.873 17.9902C86.9785 18.3145 87.1426 18.5742 87.3652 18.7695C87.5918 18.9648 87.8867 19.0625 88.25 19.0625ZM89.7383 20L89.6211 18.7227V11H90.9043V20H89.7383Z" fill="white"/>
<path d="M36.8994 26.1885C36.8994 26.0306 36.8522 25.9053 36.7578 25.8125C36.665 25.7181 36.5275 25.6709 36.3452 25.6709C36.2329 25.6709 36.1336 25.6904 36.0474 25.7295C35.9627 25.7686 35.8968 25.8198 35.8496 25.8833C35.8024 25.9468 35.7788 26.016 35.7788 26.0908H35.3223C35.3223 25.9639 35.3654 25.841 35.4517 25.7222C35.5379 25.6017 35.6592 25.5033 35.8154 25.4268C35.9733 25.3486 36.1589 25.3096 36.3721 25.3096C36.5641 25.3096 36.7342 25.3421 36.8823 25.4072C37.0304 25.4723 37.146 25.5708 37.229 25.7026C37.3136 25.8328 37.356 25.9964 37.356 26.1934V27.4238C37.356 27.5117 37.3633 27.6053 37.3779 27.7046C37.3942 27.8039 37.4178 27.8893 37.4487 27.9609V28H36.9727C36.9499 27.9479 36.932 27.8787 36.9189 27.7925C36.9059 27.7046 36.8994 27.6232 36.8994 27.5483V26.1885ZM36.9775 26.7158H36.5283C36.2712 26.7158 36.0726 26.7565 35.9326 26.8379C35.7926 26.9193 35.7227 27.0413 35.7227 27.2041C35.7227 27.3311 35.765 27.4385 35.8496 27.5264C35.9359 27.6143 36.0612 27.6582 36.2256 27.6582C36.3639 27.6582 36.486 27.6289 36.5918 27.5703C36.6976 27.5117 36.7814 27.4393 36.8433 27.353C36.9051 27.2668 36.9385 27.1838 36.9434 27.104L37.1387 27.3213C37.1273 27.3896 37.0964 27.4653 37.0459 27.5483C36.9954 27.6313 36.9279 27.7111 36.8433 27.7876C36.7603 27.8625 36.661 27.9251 36.5454 27.9756C36.4315 28.0244 36.3029 28.0488 36.1597 28.0488C35.9806 28.0488 35.8236 28.0146 35.6885 27.9463C35.555 27.8763 35.4508 27.7819 35.376 27.6631C35.3027 27.5443 35.2661 27.4124 35.2661 27.2676C35.2661 26.9827 35.3735 26.7671 35.5884 26.6206C35.8032 26.4725 36.0921 26.3984 36.4551 26.3984H36.9775V26.7158ZM39.6826 25.3584H40.1392V28H39.7046L39.6826 27.3896V25.3584ZM39.9585 26.8281C39.9585 27.0625 39.9251 27.2716 39.8584 27.4556C39.7917 27.6395 39.6826 27.7843 39.5312 27.8901C39.3799 27.9959 39.1772 28.0488 38.9233 28.0488C38.6646 28.0488 38.4554 27.9723 38.2959 27.8193C38.1364 27.6663 38.0566 27.4141 38.0566 27.0625V25.3584H38.5132V27.0674C38.5132 27.2269 38.536 27.3506 38.5815 27.4385C38.6287 27.5247 38.689 27.585 38.7622 27.6191C38.8371 27.6517 38.9152 27.668 38.9966 27.668C39.1886 27.668 39.3408 27.6313 39.4531 27.5581C39.5654 27.4832 39.646 27.3823 39.6948 27.2554C39.7437 27.1284 39.7681 26.9876 39.7681 26.833L39.9585 26.8281ZM41.7554 28.0488C41.5487 28.0488 41.3672 27.991 41.2109 27.8755C41.0547 27.7583 40.9326 27.5988 40.8447 27.397C40.7585 27.1951 40.7153 26.9657 40.7153 26.7085V26.6572C40.7153 26.3887 40.7585 26.1535 40.8447 25.9517C40.9326 25.7482 41.0547 25.5903 41.2109 25.478C41.3672 25.3657 41.5503 25.3096 41.7603 25.3096C41.9816 25.3096 42.1663 25.3608 42.3145 25.4634C42.4626 25.5643 42.5781 25.7083 42.6611 25.8955C42.7458 26.0827 42.8003 26.3057 42.8247 26.5645V26.8013C42.8003 27.0568 42.7466 27.2782 42.6636 27.4653C42.5806 27.6509 42.4642 27.7949 42.3145 27.8975C42.1663 27.9984 41.98 28.0488 41.7554 28.0488ZM41.8677 27.668C42.0174 27.668 42.1403 27.6362 42.2363 27.5728C42.334 27.5093 42.4121 27.4255 42.4707 27.3213C42.5293 27.2171 42.5749 27.104 42.6074 26.9819V26.3887C42.5879 26.2992 42.5594 26.2129 42.522 26.1299C42.4862 26.0452 42.439 25.9704 42.3804 25.9053C42.3234 25.8385 42.2526 25.7856 42.168 25.7466C42.085 25.7075 41.9865 25.688 41.8726 25.688C41.7082 25.688 41.5739 25.7319 41.4697 25.8198C41.3672 25.9077 41.2915 26.0257 41.2427 26.1738C41.1955 26.3203 41.1719 26.4814 41.1719 26.6572V26.7085C41.1719 26.8843 41.1955 27.0446 41.2427 27.1895C41.2915 27.3343 41.3672 27.4507 41.4697 27.5386C41.5723 27.6248 41.7049 27.668 41.8677 27.668ZM42.5293 28L42.4902 27.4873V24.25H42.9468V28H42.5293ZM43.9282 24.3989C44.0161 24.3989 44.0828 24.4242 44.1284 24.4746C44.1756 24.5251 44.1992 24.5861 44.1992 24.6577C44.1992 24.7277 44.1756 24.7879 44.1284 24.8384C44.0828 24.8872 44.0161 24.9116 43.9282 24.9116C43.8403 24.9116 43.7736 24.8872 43.728 24.8384C43.6841 24.7879 43.6621 24.7277 43.6621 24.6577C43.6621 24.5861 43.6841 24.5251 43.728 24.4746C43.7736 24.4242 43.8403 24.3989 43.9282 24.3989ZM44.1577 28H43.7036V25.3584H44.1577V28ZM44.7803 26.6523C44.7803 26.3968 44.8291 26.1681 44.9268 25.9663C45.0244 25.7645 45.1628 25.605 45.3418 25.4878C45.5208 25.369 45.7332 25.3096 45.979 25.3096C46.228 25.3096 46.4429 25.369 46.6235 25.4878C46.8042 25.605 46.9425 25.7645 47.0386 25.9663C47.1362 26.1681 47.1851 26.3968 47.1851 26.6523V26.7085C47.1851 26.9624 47.1362 27.1911 47.0386 27.3945C46.9425 27.5964 46.8042 27.7559 46.6235 27.873C46.4445 27.9902 46.2313 28.0488 45.9839 28.0488C45.7365 28.0488 45.5225 27.9902 45.3418 27.873C45.1628 27.7559 45.0244 27.5964 44.9268 27.3945C44.8291 27.1911 44.7803 26.9624 44.7803 26.7085V26.6523ZM45.2368 26.7085C45.2368 26.8826 45.2645 27.0438 45.3198 27.1919C45.3752 27.34 45.4574 27.4588 45.5664 27.5483C45.6771 27.6379 45.8162 27.6826 45.9839 27.6826C46.1499 27.6826 46.2874 27.6379 46.3965 27.5483C46.5072 27.4588 46.5902 27.34 46.6455 27.1919C46.7008 27.0438 46.7285 26.8826 46.7285 26.7085V26.6523C46.7285 26.4782 46.7008 26.3171 46.6455 26.1689C46.5902 26.0208 46.5072 25.902 46.3965 25.8125C46.2858 25.7214 46.1466 25.6758 45.979 25.6758C45.8146 25.6758 45.6771 25.7214 45.5664 25.8125C45.4557 25.902 45.3727 26.0208 45.3174 26.1689C45.2637 26.3171 45.2368 26.4782 45.2368 26.6523V26.7085ZM50.0928 28.0488C49.847 28.0488 49.633 27.9943 49.4507 27.8853C49.27 27.7746 49.1292 27.6232 49.0283 27.4312C48.929 27.2391 48.8794 27.0194 48.8794 26.772V26.667C48.8794 26.3805 48.9339 26.1364 49.043 25.9346C49.1536 25.7311 49.2969 25.5765 49.4727 25.4707C49.6501 25.3633 49.8372 25.3096 50.0342 25.3096C50.2881 25.3096 50.4948 25.3665 50.6543 25.4805C50.8154 25.5928 50.9334 25.7466 51.0083 25.9419C51.0848 26.1356 51.123 26.3553 51.123 26.6011V26.8037H49.1504V26.4375H50.6665V26.4033C50.66 26.2861 50.6364 26.1722 50.5957 26.0615C50.555 25.9492 50.4899 25.8573 50.4004 25.7856C50.3109 25.7124 50.1888 25.6758 50.0342 25.6758C49.8975 25.6758 49.7762 25.7148 49.6704 25.793C49.5662 25.8695 49.484 25.9818 49.4238 26.1299C49.3652 26.2764 49.3359 26.4554 49.3359 26.667V26.772C49.3359 26.9396 49.3669 27.0926 49.4287 27.231C49.4906 27.3677 49.5801 27.4775 49.6973 27.5605C49.8145 27.6419 49.9544 27.6826 50.1172 27.6826C50.2767 27.6826 50.4118 27.6501 50.5225 27.585C50.6331 27.5199 50.73 27.4328 50.813 27.3237L51.0889 27.5386C51.0042 27.6688 50.8822 27.7868 50.7227 27.8926C50.5648 27.9967 50.3548 28.0488 50.0928 28.0488ZM52.5806 28.0488C52.3739 28.0488 52.1924 27.991 52.0361 27.8755C51.8799 27.7583 51.7578 27.5988 51.6699 27.397C51.5837 27.1951 51.5405 26.9657 51.5405 26.7085V26.6572C51.5405 26.3887 51.5837 26.1535 51.6699 25.9517C51.7578 25.7482 51.8799 25.5903 52.0361 25.478C52.1924 25.3657 52.3755 25.3096 52.5854 25.3096C52.8068 25.3096 52.9915 25.3608 53.1396 25.4634C53.2878 25.5643 53.4033 25.7083 53.4863 25.8955C53.571 26.0827 53.6255 26.3057 53.6499 26.5645V26.8013C53.6255 27.0568 53.5718 27.2782 53.4888 27.4653C53.4058 27.6509 53.2894 27.7949 53.1396 27.8975C52.9915 27.9984 52.8052 28.0488 52.5806 28.0488ZM52.6929 27.668C52.8426 27.668 52.9655 27.6362 53.0615 27.5728C53.1592 27.5093 53.2373 27.4255 53.2959 27.3213C53.3545 27.2171 53.4001 27.104 53.4326 26.9819V26.3887C53.4131 26.2992 53.3846 26.2129 53.3472 26.1299C53.3114 26.0452 53.2642 25.9704 53.2056 25.9053C53.1486 25.8385 53.0778 25.7856 52.9932 25.7466C52.9102 25.7075 52.8117 25.688 52.6978 25.688C52.5334 25.688 52.3991 25.7319 52.2949 25.8198C52.1924 25.9077 52.1167 26.0257 52.0679 26.1738C52.0207 26.3203 51.9971 26.4814 51.9971 26.6572V26.7085C51.9971 26.8843 52.0207 27.0446 52.0679 27.1895C52.1167 27.3343 52.1924 27.4507 52.2949 27.5386C52.3975 27.6248 52.5301 27.668 52.6929 27.668ZM53.3545 28L53.3154 27.4873V24.25H53.772V28H53.3545ZM54.7534 24.3989C54.8413 24.3989 54.908 24.4242 54.9536 24.4746C55.0008 24.5251 55.0244 24.5861 55.0244 24.6577C55.0244 24.7277 55.0008 24.7879 54.9536 24.8384C54.908 24.8872 54.8413 24.9116 54.7534 24.9116C54.6655 24.9116 54.5988 24.8872 54.5532 24.8384C54.5093 24.7879 54.4873 24.7277 54.4873 24.6577C54.4873 24.5861 54.5093 24.5251 54.5532 24.4746C54.5988 24.4242 54.6655 24.3989 54.7534 24.3989ZM54.9829 28H54.5288V25.3584H54.9829V28ZM56.8335 25.7026H55.4028V25.3584H56.8335V25.7026ZM56.3403 24.7163V27.3457C56.3403 27.4368 56.3542 27.5052 56.3818 27.5508C56.4095 27.5964 56.4453 27.6265 56.4893 27.6411C56.5332 27.6558 56.5804 27.6631 56.6309 27.6631C56.6683 27.6631 56.7074 27.6598 56.748 27.6533C56.7904 27.6468 56.8213 27.6411 56.8408 27.6362V28C56.805 28.0114 56.7586 28.022 56.7017 28.0317C56.6447 28.0431 56.5755 28.0488 56.4941 28.0488C56.3835 28.0488 56.2817 28.0269 56.189 27.9829C56.0962 27.939 56.0221 27.8657 55.9668 27.7632C55.9115 27.659 55.8838 27.519 55.8838 27.3433V24.7163H56.3403ZM57.168 26.6523C57.168 26.3968 57.2168 26.1681 57.3145 25.9663C57.4121 25.7645 57.5505 25.605 57.7295 25.4878C57.9085 25.369 58.1209 25.3096 58.3667 25.3096C58.6157 25.3096 58.8306 25.369 59.0112 25.4878C59.1919 25.605 59.3302 25.7645 59.4263 25.9663C59.5239 26.1681 59.5728 26.3968 59.5728 26.6523V26.7085C59.5728 26.9624 59.5239 27.1911 59.4263 27.3945C59.3302 27.5964 59.1919 27.7559 59.0112 27.873C58.8322 27.9902 58.619 28.0488 58.3716 28.0488C58.1242 28.0488 57.9102 27.9902 57.7295 27.873C57.5505 27.7559 57.4121 27.5964 57.3145 27.3945C57.2168 27.1911 57.168 26.9624 57.168 26.7085V26.6523ZM57.6245 26.7085C57.6245 26.8826 57.6522 27.0438 57.7075 27.1919C57.7629 27.34 57.8451 27.4588 57.9541 27.5483C58.0648 27.6379 58.2039 27.6826 58.3716 27.6826C58.5376 27.6826 58.6751 27.6379 58.7842 27.5483C58.8949 27.4588 58.9779 27.34 59.0332 27.1919C59.0885 27.0438 59.1162 26.8826 59.1162 26.7085V26.6523C59.1162 26.4782 59.0885 26.3171 59.0332 26.1689C58.9779 26.0208 58.8949 25.902 58.7842 25.8125C58.6735 25.7214 58.5343 25.6758 58.3667 25.6758C58.2023 25.6758 58.0648 25.7214 57.9541 25.8125C57.8434 25.902 57.7604 26.0208 57.7051 26.1689C57.6514 26.3171 57.6245 26.4782 57.6245 26.6523V26.7085ZM60.5981 28H60.1416V25.3584H60.5859L60.5981 25.7734V28ZM61.4209 25.7612C61.3818 25.7531 61.3452 25.7482 61.311 25.7466C61.2785 25.7433 61.241 25.7417 61.1987 25.7417C61.0604 25.7417 60.9432 25.7702 60.8472 25.8271C60.7528 25.8841 60.6795 25.9631 60.6274 26.064C60.5754 26.1632 60.5428 26.2772 60.5298 26.4058L60.4004 26.479C60.4004 26.2658 60.4289 26.0713 60.4858 25.8955C60.5428 25.7181 60.6315 25.5765 60.752 25.4707C60.874 25.3633 61.0303 25.3096 61.2207 25.3096C61.2516 25.3096 61.2882 25.3136 61.3306 25.3218C61.3745 25.3283 61.4046 25.3356 61.4209 25.3438V25.7612Z" fill="#868686"/>
<line x1="35" y1="22.5" x2="91" y2="22.5" stroke="white"/>
<line x1="35" y1="8.5" x2="91" y2="8.5" stroke="white"/>
</svg>
