<svg width="40" height="28" viewBox="0 0 40 28" fill="none" xmlns="http://www.w3.org/2000/svg">
<path d="M16.409 3.02028C17.6837 1.69975 19.4597 0.865611 21.4181 0.865611C24.0288 0.865611 26.2906 2.32268 27.5045 4.47788C28.552 4.00748 29.7205 3.74935 30.9498 3.74935C35.6554 3.74935 39.4496 7.58935 39.4496 12.3254C39.4496 17.0614 35.64 20.9003 30.9498 20.9003C30.3738 20.9003 29.8117 20.8395 29.2805 20.7334C28.2181 22.6305 26.184 23.9211 23.8458 23.9211C22.8752 23.9211 21.9488 23.6934 21.129 23.2987C20.0517 25.8337 17.5317 27.6241 14.6021 27.6241C11.5514 27.6241 8.9408 25.6966 7.9386 22.9787C7.4941 23.0699 7.0415 23.1157 6.5877 23.1153C2.945 23.1153 0 20.1403 0 16.4518C0 13.9985 1.3205 11.8374 3.2938 10.6838C2.8842 9.75786 2.6565 8.72646 2.6565 7.63308C2.6426 3.43041 6.088 1.07461e-05 10.3066 1.07461e-05C11.4879 -0.00196925 12.6535 0.269691 13.7122 0.793701C14.7708 1.31771 15.6942 2.07982 16.409 3.02028Z" fill="#868686"/>
<path d="M5.01352 15.6629L5.18042 15.2229C5.21082 15.1472 5.25622 15.1776 5.28712 15.1925L5.42362 15.2832C5.89402 15.5872 6.33462 15.5872 6.47112 15.5872C6.82042 15.5872 7.04712 15.4048 7.04712 15.1472V15.1322C7.04712 14.8592 6.71322 14.7536 6.31862 14.6309L6.22792 14.6005C5.69672 14.4485 5.11962 14.2218 5.11962 13.553V13.5381C5.11962 12.9008 5.63592 12.4448 6.37942 12.4448H6.45512C6.89512 12.4448 7.30522 12.5664 7.60872 12.7637C7.63912 12.7786 7.66952 12.809 7.65402 12.8544L7.48712 13.2944C7.45672 13.3701 7.38042 13.3248 7.38042 13.3248C7.10742 13.1728 6.69782 13.0666 6.34842 13.0666C6.02952 13.0666 5.83222 13.2336 5.83222 13.4613V13.4762C5.83222 13.7344 6.18152 13.8549 6.57622 13.9776L6.65192 13.9925C7.18312 14.1594 7.74522 14.3872 7.74522 15.04V15.0549C7.74522 15.7536 7.24392 16.1781 6.43962 16.1781C6.04502 16.1781 5.66632 16.1173 5.25562 15.905C5.17992 15.8597 5.10362 15.8293 5.02792 15.7685C5.01302 15.7381 4.98262 15.7232 5.01302 15.6618L5.01352 15.6629ZM16.8535 15.6629L17.0204 15.2229C17.0508 15.1472 17.1111 15.1776 17.1271 15.1925L17.2636 15.2832C17.734 15.5872 18.1746 15.5872 18.3111 15.5872C18.6604 15.5872 18.8871 15.4048 18.8871 15.1472V15.1322C18.8871 14.8592 18.5532 14.7536 18.1586 14.6309L18.0679 14.6005C17.5367 14.4485 16.9596 14.2218 16.9596 13.553V13.5381C16.9596 12.9008 17.4759 12.4448 18.2194 12.4448H18.2951C18.7351 12.4448 19.1452 12.5664 19.4487 12.7637C19.4791 12.7786 19.5095 12.809 19.494 12.8544L19.3271 13.2944C19.2967 13.3701 19.2204 13.3248 19.2204 13.3248C18.9474 13.1728 18.5378 13.0666 18.1884 13.0666C17.8695 13.0666 17.6722 13.2336 17.6722 13.4613V13.4762C17.6722 13.7344 18.0215 13.8549 18.4162 13.9776L18.4919 13.9925C19.0231 14.1594 19.5852 14.3872 19.5852 15.04V15.0549C19.5852 15.7536 19.0839 16.1781 18.2796 16.1781C17.885 16.1781 17.5063 16.1173 17.0956 15.905C17.0199 15.8597 16.9436 15.8293 16.8679 15.7685C16.8679 15.7381 16.8375 15.7232 16.853 15.6618L16.8535 15.6629ZM25.6268 13.5829C25.6876 13.8106 25.7335 14.0533 25.7335 14.3114C25.7335 14.5696 25.7031 14.8128 25.6268 15.04C25.566 15.2677 25.4599 15.465 25.3228 15.6266C25.1824 15.7951 25.006 15.93 24.8066 16.0213C24.5943 16.112 24.3511 16.1578 24.078 16.1578C23.805 16.1578 23.5618 16.1125 23.3495 16.0213C23.1372 15.9301 22.9708 15.7936 22.8332 15.6266C22.6956 15.4597 22.5906 15.2624 22.5292 15.04C22.4679 14.8176 22.4226 14.5696 22.4226 14.3114C22.4226 14.0533 22.453 13.8101 22.5292 13.5829C22.59 13.3552 22.6962 13.1578 22.8332 12.9962C22.9736 12.8277 23.1501 12.6929 23.3495 12.6016C23.5794 12.5017 23.8274 12.4499 24.078 12.4496C24.3511 12.4496 24.5943 12.4949 24.8066 12.6016C25.0188 12.6922 25.1852 12.8293 25.3228 12.9962C25.4604 13.1632 25.5655 13.3605 25.6268 13.5829ZM24.9442 14.2965C24.9442 13.9018 24.8684 13.5978 24.7319 13.3856C24.5954 13.1733 24.3676 13.0666 24.0791 13.0666C23.7751 13.0666 23.5628 13.1733 23.4263 13.3856C23.2898 13.5978 23.214 13.9018 23.214 14.2965C23.214 14.6912 23.2898 14.9952 23.4263 15.2224C23.5628 15.4346 23.7756 15.5413 24.0791 15.5413C24.3826 15.5413 24.5954 15.4346 24.7319 15.2224C24.8839 15.0101 24.9442 14.6912 24.9442 14.2965ZM31.1826 15.4346L31.3495 15.8901C31.3644 15.9509 31.3191 15.9658 31.3191 15.9658C31.061 16.0725 30.7122 16.1328 30.3628 16.1328C29.7762 16.1328 29.3308 15.9658 29.0274 15.6314C28.7239 15.297 28.5719 14.8421 28.5719 14.2805C28.5719 14.0224 28.6023 13.7792 28.6786 13.552C28.7548 13.3248 28.861 13.1269 29.0124 12.9653C29.1641 12.7959 29.3506 12.6613 29.5591 12.5706C29.7992 12.4693 30.0574 12.4176 30.318 12.4186C30.4854 12.4193 30.6526 12.4294 30.8188 12.449C30.9708 12.4794 31.1831 12.5248 31.2743 12.5706C31.2892 12.5706 31.3351 12.601 31.3196 12.6464L31.1527 13.1018C31.1223 13.1776 31.077 13.1472 31.077 13.1472C30.8492 13.0714 30.637 13.0405 30.3634 13.0405C30.0295 13.0405 29.7767 13.1472 29.6194 13.3744C29.4524 13.5866 29.3612 13.8757 29.3612 14.2704C29.3612 14.6954 29.4679 14.9989 29.6492 15.1962C29.8306 15.3936 30.0892 15.4842 30.4226 15.4842C30.5591 15.4842 30.6807 15.4693 30.7868 15.4538C30.893 15.4384 30.9991 15.4085 31.1058 15.3632C31.0908 15.3936 31.1511 15.3781 31.1815 15.4389L31.1826 15.4346ZM34.6279 13.4464C34.7799 13.9626 34.7036 14.4026 34.6887 14.433C34.6887 14.4938 34.6279 14.4938 34.6279 14.4938H32.3362C32.3511 14.8432 32.4268 15.0805 32.6092 15.2528C32.7762 15.4197 33.0343 15.5258 33.3986 15.5258C33.9452 15.5258 34.1719 15.4192 34.3399 15.3589C34.3399 15.3589 34.4007 15.344 34.4306 15.4042L34.5826 15.8293C34.613 15.905 34.5826 15.92 34.5676 15.936C34.4311 16.0117 34.0823 16.1637 33.414 16.1637C33.0951 16.1637 32.8071 16.1184 32.5794 16.0272C32.3516 15.936 32.1543 15.8149 32.0034 15.6485C31.8524 15.4821 31.7452 15.2842 31.6695 15.0725C31.5938 14.8448 31.5628 14.6021 31.5628 14.344C31.5628 14.0858 31.5932 13.8426 31.6695 13.6154C31.7303 13.3877 31.8364 13.1904 31.9735 13.0288C32.1106 12.8672 32.2924 12.7248 32.5047 12.6341C32.717 12.5274 32.9751 12.4821 33.2636 12.4821C33.5063 12.4821 33.734 12.5274 33.9164 12.6186C34.053 12.6794 34.2044 12.7856 34.3564 12.9525C34.4322 13.0133 34.5687 13.2405 34.6295 13.4538L34.6279 13.4464ZM32.3506 13.9317H33.9746C33.9596 13.7194 33.9138 13.537 33.8226 13.385C33.686 13.1728 33.4887 13.0512 33.1852 13.0512C32.8818 13.0512 32.669 13.1728 32.5324 13.385C32.4418 13.5216 32.3964 13.704 32.3506 13.9317ZM16.3068 13.4464C16.4588 13.9626 16.3826 14.4026 16.3826 14.433C16.3826 14.4938 16.3218 14.4938 16.3218 14.4938H14.03C14.045 14.8432 14.1207 15.0805 14.3031 15.2528C14.47 15.4197 14.7282 15.5258 15.0924 15.5258C15.6391 15.5258 15.8658 15.4192 16.0338 15.3589C16.0338 15.3589 16.0946 15.344 16.1244 15.4042L16.2764 15.8293C16.3068 15.905 16.2764 15.92 16.2615 15.936C16.125 16.0117 15.7762 16.1637 15.1079 16.1637C14.789 16.1637 14.501 16.1184 14.2732 16.0272C14.0455 15.936 13.8482 15.8149 13.6972 15.6485C13.5463 15.4821 13.4391 15.2842 13.3634 15.0725C13.2876 14.8448 13.2567 14.6021 13.2567 14.344C13.2567 14.0858 13.2871 13.8426 13.3634 13.6154C13.4242 13.3877 13.5303 13.1904 13.6674 13.0288C13.8044 12.8672 13.9863 12.7248 14.1986 12.6341C14.4108 12.5274 14.669 12.4821 14.9575 12.4821C15.2002 12.4821 15.4279 12.5274 15.6103 12.6186C15.7468 12.6794 15.8983 12.7856 16.0503 12.9525C16.1111 13.0133 16.2626 13.2405 16.3084 13.4538L16.3068 13.4464ZM14.0295 13.9317H15.669C15.654 13.7194 15.6082 13.537 15.517 13.385C15.3804 13.1728 15.1831 13.0512 14.8796 13.0512C14.5762 13.0512 14.3634 13.1728 14.2268 13.385C14.1202 13.5216 14.0748 13.704 14.0295 13.9317ZM10.0071 13.8101L10.3858 13.8554V13.7648C10.3858 13.4608 10.325 13.3093 10.2034 13.2181C10.0818 13.1269 9.88442 13.0661 9.64182 13.0661C9.64182 13.0661 9.08022 13.0661 8.64022 13.2938C8.62522 13.3088 8.60982 13.3088 8.60982 13.3088C8.60982 13.3088 8.54902 13.3237 8.53402 13.2784L8.36712 12.8384C8.33672 12.7776 8.38202 12.7477 8.38202 12.7477C8.59432 12.5808 9.08072 12.4896 9.08072 12.4896C9.24762 12.4592 9.52072 12.4288 9.68762 12.4288C10.1431 12.4288 10.4919 12.5354 10.7351 12.7477C10.9783 12.96 11.0994 13.2944 11.0994 13.7648V15.8592C11.0994 15.8592 11.0994 15.92 11.054 15.9349C11.054 15.9349 10.9634 15.9653 10.8871 15.9802L10.3111 16.0869C10.0834 16.1322 9.85562 16.1477 9.61242 16.1477C9.38472 16.1477 9.18742 16.1328 9.00552 16.0869C8.82362 16.041 8.67162 15.9802 8.53512 15.8896C8.41352 15.7989 8.30742 15.6773 8.23112 15.5253C8.15542 15.3888 8.12442 15.2064 8.12442 15.009C8.12442 14.8117 8.16982 14.6304 8.24602 14.4778C8.32232 14.3253 8.44342 14.2048 8.57992 14.0992C8.71642 13.9936 8.88392 13.9322 9.05032 13.8714C9.23272 13.8261 9.41462 13.7957 9.61192 13.7957L10.0071 13.8101ZM9.09622 15.4192C9.09622 15.4192 9.30842 15.5861 9.76392 15.5557C10.0978 15.5408 10.3863 15.48 10.3863 15.48V14.4325C10.3863 14.4325 10.0983 14.3872 9.76392 14.3872C9.29352 14.3872 9.09622 14.5541 9.09622 14.5541C8.95962 14.6448 8.89882 14.7968 8.89882 14.9941C8.89672 15.1002 8.92282 15.2049 8.97462 15.2976C8.98952 15.328 9.00502 15.3584 9.09622 15.4192ZM28.4487 12.6416C28.4338 12.7024 28.3122 13.0202 28.2818 13.1269C28.2668 13.1722 28.2364 13.1877 28.1911 13.1877C28.1911 13.1877 28.0546 13.1573 27.933 13.1573C27.8303 13.1597 27.7284 13.1749 27.6295 13.2026C27.5228 13.233 27.4322 13.2933 27.3415 13.3696C27.2508 13.4458 27.1895 13.5669 27.1442 13.7034C27.0988 13.84 27.0684 14.0677 27.0684 14.3104V16.0101C27.0684 16.0554 27.038 16.0858 26.9927 16.0858H26.3858C26.3404 16.0858 26.31 16.0554 26.31 16.0101V12.5973C26.31 12.552 26.3404 12.5216 26.3708 12.5216H26.9575C27.0028 12.5216 27.0183 12.552 27.0183 12.5973V12.8704C27.109 12.7488 27.261 12.6426 27.397 12.5824C27.533 12.5221 27.701 12.4757 27.9836 12.4917C28.1356 12.5066 28.333 12.537 28.3623 12.5525C28.4231 12.5674 28.453 12.5829 28.438 12.6432L28.4487 12.6416ZM22.8167 11.0629C22.8316 11.0629 22.8775 11.0933 22.862 11.1386L22.6796 11.624C22.6647 11.6544 22.6492 11.6848 22.573 11.6544C22.558 11.6544 22.5276 11.6394 22.4514 11.624C22.406 11.609 22.3298 11.609 22.269 11.609C22.1783 11.609 22.102 11.624 22.0263 11.6394C21.9506 11.6549 21.8898 11.7002 21.829 11.761C21.7682 11.8218 21.7074 11.8976 21.662 12.0037C21.5714 12.2464 21.5404 12.505 21.5404 12.52H22.269C22.3298 12.52 22.3447 12.5504 22.3447 12.5957L22.254 13.0661C22.2391 13.1418 22.1783 13.1269 22.1783 13.1269H21.4194L20.934 16.0565C20.8732 16.3605 20.8124 16.6181 20.7367 16.8298C20.661 17.0416 20.5698 17.1941 20.4327 17.3461C20.3111 17.4826 20.1746 17.5888 20.0076 17.6341C19.8556 17.6949 19.6583 17.7248 19.446 17.7248C19.3394 17.7248 19.2338 17.7248 19.1122 17.6944C19.0391 17.6832 18.9678 17.6628 18.8999 17.6336C18.8695 17.6186 18.8546 17.5882 18.8695 17.5429L19.0364 17.0725C19.0668 17.0117 19.1122 17.0421 19.1122 17.0421L19.2338 17.0874C19.2946 17.1024 19.3554 17.1024 19.4162 17.1024C19.5228 17.1024 19.6135 17.0874 19.6892 17.057C19.7799 17.0266 19.8412 16.9664 19.9015 16.8901C19.9618 16.8138 20.0082 16.7077 20.0684 16.5712C20.1245 16.3867 20.1701 16.1992 20.205 16.0096L20.7212 13.1402H20.2199C20.1591 13.1402 20.1442 13.1098 20.1442 13.0645L20.2348 12.5941C20.2498 12.5184 20.3106 12.5333 20.3106 12.5333H20.8268L20.8572 12.3813C20.933 11.9258 21.085 11.577 21.3127 11.3493C21.5404 11.1216 21.8743 11 22.2834 11C22.405 11 22.5111 11.0149 22.6023 11.0304C22.6631 11.0154 22.7388 11.0304 22.8146 11.0608L22.8167 11.0629ZM12.5863 15.9962C12.5863 16.0416 12.5559 16.072 12.5255 16.072H11.9186C11.8732 16.072 11.8578 16.0416 11.8578 15.9962V11.1237C11.8578 11.0933 11.8882 11.048 11.9186 11.048H12.5255C12.5708 11.048 12.5863 11.0784 12.5863 11.1237V15.9962Z" fill="white"/>
</svg>
