<svg width="32" height="32" viewBox="0 0 32 32" fill="none" xmlns="http://www.w3.org/2000/svg">
<g clip-path="url(#clip0_36_46)">
<path d="M16 32C24.8366 32 32 24.8366 32 16C32 7.16344 24.8366 0 16 0C7.16344 0 0 7.16344 0 16C0 24.8366 7.16344 32 16 32Z" fill="#868686"/>
<path d="M9.39385 8.6875L8.3501 11.4719V22.6H12.1751V24.6875H14.2626L16.347 22.6H19.4782L23.6501 18.4281V8.6875H9.39385ZM10.7845 10.0781H22.2626V17.7313L19.8282 20.1656H16.0001L13.9157 22.25V20.1656H10.7845V10.0781ZM14.6095 17.0344H16.0001V12.8625H14.6095V17.0344ZM18.4345 17.0344H19.8251V12.8625H18.4345V17.0344Z" fill="white"/>
</g>
<defs>
<clipPath id="clip0_36_46">
<rect width="32" height="32" fill="white"/>
</clipPath>
</defs>
</svg>
