<svg width="32" height="32" viewBox="0 0 32 32" fill="none" xmlns="http://www.w3.org/2000/svg">
<path d="M32 30C32 31.1032 31.1032 32 30 32H1.99999C0.896904 32 0 31.1032 0 30V1.99998C0 0.896839 0.896904 0 1.99999 0H30C31.1032 0 32 0.896839 32 1.99998V30Z" fill="#868686"/>
<path d="M21.3328 6.73145H17.5225C13.7785 6.73145 10.6034 8.77134 10.6034 12.7317C10.6034 15.1075 12.141 16.8593 14.8813 17.7234L9.7677 24.3475C9.60034 24.5637 9.7677 24.7314 10.035 24.7314H12.4083C12.6086 24.7314 12.743 24.6836 12.8098 24.5637L17.4557 18.0595H19.1269V24.5637C19.1269 24.6353 19.2268 24.7314 19.3606 24.7314H21.4333C21.6337 24.7314 21.7007 24.6594 21.7007 24.54V6.97145C21.7006 6.80344 21.5669 6.73145 21.3328 6.73145ZM19.1268 16.5237H17.723C15.5171 16.5237 13.3781 15.3717 13.3781 12.4917C13.3781 9.49123 15.3834 8.26731 17.4221 8.26731H19.1269V16.5237H19.1268Z" fill="white"/>
</svg>
