<svg width="46" height="32" viewBox="0 0 46 32" fill="none" xmlns="http://www.w3.org/2000/svg">
<path d="M44.6593 5.01099C44.1319 3.04762 42.5788 1.49451 40.6154 0.967033C37.0696 0 22.7985 0 22.7985 0C22.7985 0 8.52747 0.029304 4.98169 0.996337C3.01832 1.52381 1.4652 3.07692 0.937729 5.04029C-6.98663e-08 8.58608 0 16 0 16C0 16 -6.98663e-08 23.4139 0.967033 26.989C1.49451 28.9524 3.04762 30.5055 5.01099 31.033C8.55678 32 22.8278 32 22.8278 32C22.8278 32 37.0989 32 40.6447 31.033C42.6081 30.5055 44.1612 28.9524 44.6886 26.989C45.6557 23.4432 45.6557 16 45.6557 16C45.6557 16 45.6264 8.58608 44.6593 5.01099Z" fill="#868686"/>
<path d="M30.0954 16.0002L18.2566 9.14307V22.8574L30.0954 16.0002Z" fill="white"/>
</svg>
